<svg width="195" height="42" viewBox="0 0 195 42" fill="none" xmlns="http://www.w3.org/2000/svg">
<path d="M1.11861 32.5398C0.732056 32.1357 0.433819 31.6556 0.242744 31.1299C0.0516697 30.6042 -0.0280606 30.0446 0.00873461 29.4865C0.0455299 28.9284 0.198077 28.384 0.456505 27.888C0.714932 27.392 1.07358 26.9552 1.50983 26.6054C2.78914 25.6816 3.74383 25.6385 4.83926 25.3762C6.7015 24.9261 8.30156 23.5207 8.01205 21.4617C7.53476 18.0834 3.31734 19.4496 3.31734 16.8307C3.31734 14.2119 7.52693 15.5782 8.01205 12.2038C8.30156 10.1604 6.7015 8.75119 4.83926 8.28927C3.74383 8.027 2.78924 7.97987 1.51385 7.05604C1.07709 6.70662 0.717761 6.27008 0.458988 5.77406C0.200215 5.27804 0.0476428 4.7335 0.0108359 4.17518C-0.025971 3.61686 0.0538134 3.05691 0.245228 2.53118C0.436642 2.00545 0.735516 1.52551 1.12262 1.12172C1.52646 0.734938 2.00628 0.436335 2.53164 0.245149C3.057 0.0539631 3.61629 -0.0256227 4.1741 0.011194C4.73192 0.0480108 5.27596 0.200456 5.77167 0.459035C6.26738 0.717613 6.7039 1.07667 7.05347 1.51317C7.97676 2.79323 8.02386 3.74828 8.28598 4.84436C8.73589 6.70768 10.1404 8.30887 12.1982 8.01919C15.5706 7.54162 14.2091 3.32174 16.8225 3.32174C19.4359 3.32174 18.0744 7.5377 21.4507 8.01919C23.4929 8.30887 24.8974 6.70768 25.3629 4.84436C25.6251 3.74828 25.668 2.79323 26.5913 1.51317C26.9408 1.07667 27.3773 0.717613 27.8731 0.459035C28.3688 0.200456 28.9128 0.0480108 29.4706 0.011194C30.0284 -0.0256227 30.5879 0.0539631 31.1133 0.245149C31.6386 0.436335 32.1185 0.734938 32.5223 1.12172C32.9094 1.52551 33.2083 2.00545 33.3997 2.53118C33.5911 3.05691 33.6709 3.61686 33.6341 4.17518C33.5973 4.7335 33.4447 5.27804 33.1859 5.77406C32.9272 6.27008 32.5678 6.70662 32.1311 7.05604C30.8518 7.97987 29.8972 8.027 28.8057 8.28927C26.9395 8.73553 25.3394 10.1448 25.6289 12.2038C26.1062 15.5782 30.3236 14.2119 30.3236 16.8307C30.3236 19.4496 26.1101 18.0834 25.6289 21.4617C25.3394 23.5051 26.9395 24.9103 28.8057 25.3565C29.8972 25.6227 30.8518 25.6659 32.1311 26.5898C32.5678 26.9392 32.9272 27.3757 33.1859 27.8717C33.4447 28.3678 33.5973 28.9123 33.6341 29.4706C33.6709 30.0289 33.5911 30.5889 33.3997 31.1146C33.2083 31.6404 32.9094 32.1203 32.5223 32.5241C32.1187 32.9114 31.6389 33.2105 31.1135 33.402C30.588 33.5935 30.0286 33.6734 29.4706 33.6365C28.9126 33.5997 28.3684 33.447 27.8727 33.1881C27.3769 32.9292 26.9405 32.5696 26.5913 32.1326C25.668 30.8526 25.6251 29.8975 25.3629 28.8014C24.913 26.9381 23.5085 25.3371 21.4507 25.6268C18.0744 26.1044 19.4398 30.3243 16.8225 30.3243C14.2052 30.3243 15.5706 26.1083 12.1982 25.6268C10.156 25.3371 8.75154 26.938 8.28598 28.8053C8.02386 29.8974 7.97676 30.8526 7.05347 32.1326C6.70426 32.5696 6.26798 32.9292 5.77225 33.1881C5.27652 33.447 4.73229 33.5997 4.17429 33.6365C3.6163 33.6734 3.05669 33.5935 2.53126 33.402C2.00584 33.2105 1.52618 32.9114 1.12262 32.5241" fill="#324224"/>
<path d="M61.9553 7.30851C58.7102 7.30851 56.0316 8.88284 54.5094 11.601V0H48.3879V33.1552H54.5094V29.293C55.2393 30.6247 56.3176 31.733 57.6291 32.4995C58.9407 33.2659 60.436 33.6617 61.9553 33.6445C68.2714 33.6445 72.6819 28.2287 72.6819 20.475C72.6819 12.7214 68.2714 7.30851 61.9553 7.30851ZM66.171 20.475C66.171 25.6107 63.8995 28.8007 60.2414 28.8007C56.5273 28.8007 54.3117 25.6874 54.3117 20.475C54.3117 15.2627 56.5273 12.1495 60.2414 12.1495C63.8995 12.1584 66.171 15.3393 66.171 20.475Z" fill="#324224"/>
<path d="M81.9068 8.31689H75.688V33.1552H81.9068V8.31689Z" fill="#324224"/>
<path d="M82.1045 0H75.5405V6.31201H82.1045V0Z" fill="#324224"/>
<path d="M97.3391 7.30859C89.2588 7.30859 84.8984 14.0894 84.8984 20.4751C84.8984 26.8608 89.2588 33.6445 97.3391 33.6445C105.419 33.6445 109.782 26.8638 109.782 20.4751C109.782 14.0865 105.422 7.30859 97.3391 7.30859ZM97.3391 28.8008C93.6839 28.8008 91.4094 25.6108 91.4094 20.4751C91.4094 15.3394 93.6839 12.1496 97.3391 12.1496C101.083 12.1496 103.319 15.2628 103.319 20.4751C103.322 25.6108 101.027 28.8008 97.3391 28.8008Z" fill="#324224"/>
<path d="M117.051 26.793H110.487V33.1551H117.051V26.793Z" fill="#324224"/>
<path d="M135.914 19.4991L144.363 7.79785H137.298L132.238 15.1004L127.176 7.79785H120.06L128.562 19.5463L118.842 33.155H125.954L132.238 23.9951L138.522 33.155H145.581L135.914 19.4991Z" fill="#324224"/>
<path d="M159.152 30.313L155.382 41.4776H161.598L173.017 7.79785H166.748L160.249 27.0965" fill="#324224"/>
<path d="M181.992 28.3112L193.727 12.3144L193.813 12.1995V7.79785H174.463V12.6417H185.989L174.253 28.6355L174.171 28.7534V33.155H194.299V28.3112H181.992Z" fill="#324224"/>
<path d="M159.583 29.9739L151.898 7.79785H145.582L153.264 29.9739H159.583Z" fill="#324224"/>
</svg>
